<svg width="34" height="34" viewBox="0 0 34 34" fill="none" xmlns="http://www.w3.org/2000/svg">
<path d="M24.9242 12.1667C24.5337 11.7762 23.9005 11.7762 23.51 12.1667C23.1195 12.5573 23.1195 13.1904 23.51 13.5809L24.9242 12.1667ZM28.3137 16.9704L29.0208 17.6776C29.4113 17.287 29.4113 16.6539 29.0208 16.2633L28.3137 16.9704ZM23.5103 20.3597C23.1197 20.7502 23.1197 21.3834 23.5103 21.7739C23.9008 22.1644 24.5339 22.1644 24.9245 21.7739L23.5103 20.3597ZM18.7553 16.9701L18.7553 15.9701H18.7552L18.7553 16.9701ZM9.0758 21.7742C9.46632 22.1647 10.0995 22.1647 10.49 21.7742C10.8805 21.3836 10.8805 20.7505 10.49 20.36L9.0758 21.7742ZM5.68629 16.9704L4.97918 16.2633C4.58866 16.6539 4.58866 17.287 4.97918 17.6776L5.68629 16.9704ZM10.4897 13.5812C10.8803 13.1907 10.8803 12.5575 10.4897 12.167C10.0992 11.7765 9.46606 11.7765 9.07553 12.167L10.4897 13.5812ZM23.51 13.5809L27.6066 17.6776L29.0208 16.2633L24.9242 12.1667L23.51 13.5809ZM27.6066 16.2633L23.5103 20.3597L24.9245 21.7739L29.0208 17.6776L27.6066 16.2633ZM28.3137 15.9704L18.7553 15.9701L18.7552 17.9701L28.3137 17.9704L28.3137 15.9704ZM10.49 20.36L6.3934 16.2633L4.97918 17.6776L9.0758 21.7742L10.49 20.36ZM6.3934 17.6776L10.4897 13.5812L9.07553 12.167L4.97918 16.2633L6.3934 17.6776ZM5.68632 17.9704L18.7553 17.9701L18.7552 15.9701L5.68627 15.9704L5.68632 17.9704Z" fill="#2E2856"/>
</svg>
