<svg width="78" height="24" viewBox="0 0 78 24" fill="none" xmlns="http://www.w3.org/2000/svg">
<path d="M13.8906 21.1025V23.5557H2.51562V21.1025H13.8906ZM3.10938 0.805664V23.5557H0.09375V0.805664H3.10938ZM33.8281 11.4619V12.8994C33.8281 14.6077 33.6146 16.139 33.1875 17.4932C32.7604 18.8473 32.1458 19.9984 31.3438 20.9463C30.5417 21.8942 29.5781 22.6182 28.4531 23.1182C27.3385 23.6182 26.0885 23.8682 24.7031 23.8682C23.3594 23.8682 22.125 23.6182 21 23.1182C19.8854 22.6182 18.9167 21.8942 18.0938 20.9463C17.2812 19.9984 16.651 18.8473 16.2031 17.4932C15.7552 16.139 15.5312 14.6077 15.5312 12.8994V11.4619C15.5312 9.75358 15.75 8.22754 16.1875 6.88379C16.6354 5.52962 17.2656 4.37858 18.0781 3.43066C18.8906 2.47233 19.8542 1.74316 20.9688 1.24316C22.0938 0.743164 23.3281 0.493164 24.6719 0.493164C26.0573 0.493164 27.3073 0.743164 28.4219 1.24316C29.5469 1.74316 30.5104 2.47233 31.3125 3.43066C32.125 4.37858 32.7448 5.52962 33.1719 6.88379C33.6094 8.22754 33.8281 9.75358 33.8281 11.4619ZM30.8438 12.8994V11.4307C30.8438 10.0765 30.7031 8.87858 30.4219 7.83691C30.151 6.79525 29.75 5.92025 29.2188 5.21191C28.6875 4.50358 28.0365 3.96712 27.2656 3.60254C26.5052 3.23796 25.6406 3.05566 24.6719 3.05566C23.7344 3.05566 22.8854 3.23796 22.125 3.60254C21.375 3.96712 20.7292 4.50358 20.1875 5.21191C19.6562 5.92025 19.2448 6.79525 18.9531 7.83691C18.6615 8.87858 18.5156 10.0765 18.5156 11.4307V12.8994C18.5156 14.264 18.6615 15.4723 18.9531 16.5244C19.2448 17.5661 19.6615 18.4463 20.2031 19.165C20.7552 19.8734 21.4062 20.4098 22.1562 20.7744C22.9167 21.139 23.7656 21.3213 24.7031 21.3213C25.6823 21.3213 26.5521 21.139 27.3125 20.7744C28.0729 20.4098 28.7135 19.8734 29.2344 19.165C29.7656 18.4463 30.1667 17.5661 30.4375 16.5244C30.7083 15.4723 30.8438 14.264 30.8438 12.8994ZM55.1562 12.2275V20.5557C54.875 20.9723 54.4271 21.4411 53.8125 21.9619C53.1979 22.4723 52.349 22.9202 51.2656 23.3057C50.1927 23.6807 48.8073 23.8682 47.1094 23.8682C45.724 23.8682 44.4479 23.6286 43.2812 23.1494C42.125 22.6598 41.1198 21.9515 40.2656 21.0244C39.4219 20.0869 38.7656 18.9515 38.2969 17.6182C37.8385 16.2744 37.6094 14.7536 37.6094 13.0557V11.29C37.6094 9.59212 37.8073 8.0765 38.2031 6.74316C38.6094 5.40983 39.2031 4.27962 39.9844 3.35254C40.7656 2.41504 41.724 1.70671 42.8594 1.22754C43.9948 0.737956 45.2969 0.493164 46.7656 0.493164C48.5052 0.493164 49.9583 0.795247 51.125 1.39941C52.3021 1.99316 53.2188 2.81608 53.875 3.86816C54.5417 4.92025 54.9688 6.11816 55.1562 7.46191H52.1406C52.0052 6.639 51.7344 5.889 51.3281 5.21191C50.9323 4.53483 50.3646 3.99316 49.625 3.58691C48.8854 3.17025 47.9323 2.96191 46.7656 2.96191C45.7135 2.96191 44.8021 3.15462 44.0312 3.54004C43.2604 3.92546 42.625 4.47754 42.125 5.19629C41.625 5.91504 41.25 6.78483 41 7.80566C40.7604 8.8265 40.6406 9.97754 40.6406 11.2588V13.0557C40.6406 14.3682 40.7917 15.54 41.0938 16.5713C41.4062 17.6025 41.849 18.4827 42.4219 19.2119C42.9948 19.9307 43.6771 20.4775 44.4688 20.8525C45.2708 21.2275 46.1562 21.415 47.125 21.415C48.1979 21.415 49.0677 21.3265 49.7344 21.1494C50.401 20.9619 50.9219 20.7432 51.2969 20.4932C51.6719 20.2327 51.9583 19.988 52.1562 19.7588V14.665H46.8906V12.2275H55.1562ZM77.6719 11.4619V12.8994C77.6719 14.6077 77.4583 16.139 77.0312 17.4932C76.6042 18.8473 75.9896 19.9984 75.1875 20.9463C74.3854 21.8942 73.4219 22.6182 72.2969 23.1182C71.1823 23.6182 69.9323 23.8682 68.5469 23.8682C67.2031 23.8682 65.9688 23.6182 64.8438 23.1182C63.7292 22.6182 62.7604 21.8942 61.9375 20.9463C61.125 19.9984 60.4948 18.8473 60.0469 17.4932C59.599 16.139 59.375 14.6077 59.375 12.8994V11.4619C59.375 9.75358 59.5938 8.22754 60.0312 6.88379C60.4792 5.52962 61.1094 4.37858 61.9219 3.43066C62.7344 2.47233 63.6979 1.74316 64.8125 1.24316C65.9375 0.743164 67.1719 0.493164 68.5156 0.493164C69.901 0.493164 71.151 0.743164 72.2656 1.24316C73.3906 1.74316 74.3542 2.47233 75.1562 3.43066C75.9688 4.37858 76.5885 5.52962 77.0156 6.88379C77.4531 8.22754 77.6719 9.75358 77.6719 11.4619ZM74.6875 12.8994V11.4307C74.6875 10.0765 74.5469 8.87858 74.2656 7.83691C73.9948 6.79525 73.5938 5.92025 73.0625 5.21191C72.5312 4.50358 71.8802 3.96712 71.1094 3.60254C70.349 3.23796 69.4844 3.05566 68.5156 3.05566C67.5781 3.05566 66.7292 3.23796 65.9688 3.60254C65.2188 3.96712 64.5729 4.50358 64.0312 5.21191C63.5 5.92025 63.0885 6.79525 62.7969 7.83691C62.5052 8.87858 62.3594 10.0765 62.3594 11.4307V12.8994C62.3594 14.264 62.5052 15.4723 62.7969 16.5244C63.0885 17.5661 63.5052 18.4463 64.0469 19.165C64.599 19.8734 65.25 20.4098 66 20.7744C66.7604 21.139 67.6094 21.3213 68.5469 21.3213C69.526 21.3213 70.3958 21.139 71.1562 20.7744C71.9167 20.4098 72.5573 19.8734 73.0781 19.165C73.6094 18.4463 74.0104 17.5661 74.2812 16.5244C74.5521 15.4723 74.6875 14.264 74.6875 12.8994Z" fill="white"/>
</svg>
