<svg width="30" height="30" viewBox="0 0 30 30" fill="none" xmlns="http://www.w3.org/2000/svg">
<path d="M14.3687 3.39239C14.6269 2.8692 15.373 2.8692 15.6312 3.39239L18.9737 10.165C19.0762 10.3728 19.2744 10.5168 19.5037 10.5501L26.9778 11.6362C27.5551 11.7201 27.7857 12.4296 27.3679 12.8368L21.9596 18.1086C21.7937 18.2703 21.718 18.5033 21.7572 18.7317L23.0339 26.1755C23.1325 26.7506 22.529 27.1891 22.0125 26.9176L15.3275 23.4031C15.1225 23.2952 14.8775 23.2952 14.6724 23.4031L7.9874 26.9176C7.47099 27.1891 6.86743 26.7506 6.96605 26.1755L8.24278 18.7317C8.28194 18.5033 8.20623 18.2703 8.04033 18.1086L2.63204 12.8368C2.21426 12.4296 2.4448 11.7201 3.02216 11.6362L10.4962 10.5501C10.7255 10.5168 10.9237 10.3728 11.0262 10.165L14.3687 3.39239Z" fill="#FBD85B"/>
</svg>
